<mxfile host="Electron" modified="2024-02-16T23:48:56.677Z" agent="Mozilla/5.0 (Windows NT 10.0; Win64; x64) AppleWebKit/537.36 (KHTML, like Gecko) draw.io/23.1.5 Chrome/120.0.6099.109 Electron/28.1.0 Safari/537.36" etag="TQvk7_gC34NI5ZAAyGeG" version="23.1.5" type="device">
  <diagram name="Page-1" id="1r0GYtF-rBGh49zQLhtn">
    <mxGraphModel dx="1891" dy="611" grid="1" gridSize="10" guides="1" tooltips="1" connect="1" arrows="1" fold="1" page="1" pageScale="1" pageWidth="850" pageHeight="1100" math="0" shadow="0">
      <root>
        <mxCell id="0" />
        <mxCell id="1" parent="0" />
        <mxCell id="Kk1WDMQA1Z-XeTUwKrqD-1" value="&lt;p style=&quot;margin:0px;margin-top:4px;text-align:center;&quot;&gt;&lt;b&gt;Date Class&lt;/b&gt;&lt;/p&gt;&lt;hr size=&quot;1&quot;&gt;&lt;p style=&quot;margin:0px;margin-left:4px;&quot;&gt;+ field: month&amp;nbsp; &amp;nbsp;( mm )&amp;nbsp; - unsigned int&lt;/p&gt;&lt;p style=&quot;margin:0px;margin-left:4px;&quot;&gt;+ field: day&amp;nbsp; &amp;nbsp; &amp;nbsp; &amp;nbsp;( dd )&amp;nbsp; &amp;nbsp; - unsigned int&lt;br&gt;&lt;/p&gt;&lt;p style=&quot;margin:0px;margin-left:4px;&quot;&gt;+ field: year&amp;nbsp; &amp;nbsp; &amp;nbsp; ( yyyy ) - unsigned int&lt;br&gt;&lt;/p&gt;&lt;hr size=&quot;1&quot;&gt;&lt;p style=&quot;margin:0px;margin-left:4px;&quot;&gt;+ Constructor(): Date(size_t, size_t, size_t)&lt;/p&gt;&lt;p style=&quot;margin:0px;margin-left:4px;&quot;&gt;+ static string format&amp;nbsp; // Either &quot;US&quot; , &quot;EU&quot; or &quot;Asian&quot;&lt;/p&gt;&lt;p style=&quot;margin:0px;margin-left:4px;&quot;&gt;&lt;br&gt;&lt;/p&gt;&lt;p style=&quot;margin:0px;margin-left:4px;&quot;&gt;+ method(): unsigned int get_year() const;&lt;/p&gt;&lt;p style=&quot;margin:0px;margin-left:4px;&quot;&gt;+ method(): unsigned int get_month() const;&lt;br&gt;&lt;/p&gt;&lt;p style=&quot;margin:0px;margin-left:4px;&quot;&gt;+ method(): unsigned int get_day_of_month() const;&lt;br&gt;&lt;/p&gt;&lt;p style=&quot;margin:0px;margin-left:4px;&quot;&gt;&lt;br&gt;&lt;/p&gt;&amp;nbsp;+ method(): void set_year(unsigned int);&lt;br&gt;&amp;nbsp;+ method(): void set_month(unsigned int)&lt;br&gt;&amp;nbsp;+ method(): void set_set_of_month(unsigned int)&lt;br&gt;&lt;br&gt;&amp;nbsp;+ method(): print_date(ostream&amp;amp;) const;&lt;br&gt;&amp;nbsp;&amp;nbsp;" style="verticalAlign=top;align=left;overflow=fill;html=1;whiteSpace=wrap;" parent="1" vertex="1">
          <mxGeometry x="-20" y="80" width="340" height="280" as="geometry" />
        </mxCell>
        <mxCell id="Kk1WDMQA1Z-XeTUwKrqD-2" value="&lt;p style=&quot;margin:0px;margin-top:4px;text-align:center;&quot;&gt;&lt;b&gt;Enum Status&lt;/b&gt;&lt;/p&gt;&lt;hr size=&quot;1&quot;&gt;&lt;p style=&quot;margin:0px;margin-left:4px;&quot;&gt;+ field: Received&lt;/p&gt;&lt;p style=&quot;margin:0px;margin-left:4px;&quot;&gt;+ field: Released&lt;br&gt;&lt;/p&gt;&lt;p style=&quot;margin:0px;margin-left:4px;&quot;&gt;&lt;br&gt;&lt;/p&gt;" style="verticalAlign=top;align=left;overflow=fill;html=1;whiteSpace=wrap;" parent="1" vertex="1">
          <mxGeometry x="390" y="80" width="180" height="70" as="geometry" />
        </mxCell>
        <mxCell id="Kk1WDMQA1Z-XeTUwKrqD-3" value="&lt;p style=&quot;margin:0px;margin-top:4px;text-align:center;&quot;&gt;&lt;b&gt;Movie Class&lt;/b&gt;&lt;/p&gt;&lt;hr size=&quot;1&quot;&gt;&lt;p style=&quot;margin:0px;margin-left:4px;&quot;&gt;+ field: name&amp;nbsp; &amp;nbsp; &amp;nbsp; &amp;nbsp; &amp;nbsp; &amp;nbsp; &amp;nbsp; -&amp;nbsp; string&lt;/p&gt;&lt;p style=&quot;margin:0px;margin-left:4px;&quot;&gt;+ field: release_date&amp;nbsp; &amp;nbsp;- Date&lt;br&gt;&lt;/p&gt;&lt;p style=&quot;margin:0px;margin-left:4px;&quot;&gt;+ field: description&amp;nbsp; &amp;nbsp; &amp;nbsp; -&amp;nbsp; string&lt;br&gt;&lt;/p&gt;&lt;p style=&quot;margin:0px;margin-left:4px;&quot;&gt;+ field: receive_date&amp;nbsp; &amp;nbsp;-&amp;nbsp; Date&lt;br&gt;&lt;/p&gt;&lt;p style=&quot;margin:0px;margin-left:4px;&quot;&gt;+ field: status&amp;nbsp; &amp;nbsp; &amp;nbsp; &amp;nbsp; &amp;nbsp; &amp;nbsp; &amp;nbsp; - Status&lt;br&gt;&lt;/p&gt;&lt;hr size=&quot;1&quot;&gt;&lt;p style=&quot;margin:0px;margin-left:4px;&quot;&gt;+ Constructor(): Movie(// above order)&lt;br&gt;&lt;/p&gt;&lt;p style=&quot;margin:0px;margin-left:4px;&quot;&gt;+ method(): getters and setters&lt;/p&gt;&lt;p style=&quot;margin:0px;margin-left:4px;&quot;&gt;&lt;br&gt;&lt;/p&gt;" style="verticalAlign=top;align=left;overflow=fill;html=1;whiteSpace=wrap;" parent="1" vertex="1">
          <mxGeometry x="660" y="80" width="250" height="170" as="geometry" />
        </mxCell>
        <mxCell id="Kk1WDMQA1Z-XeTUwKrqD-4" value="&lt;p style=&quot;margin:0px;margin-top:4px;text-align:center;&quot;&gt;&lt;b&gt;Movie Mangement System Class&lt;/b&gt;&lt;/p&gt;&lt;hr size=&quot;1&quot;&gt;&lt;p style=&quot;margin:0px;margin-left:4px;&quot;&gt;+ field: list&amp;lt;Movie&amp;gt; showingList;&lt;/p&gt;&lt;p style=&quot;margin:0px;margin-left:4px;&quot;&gt;+ field: list&amp;lt;Movie&amp;gt; comingList;&lt;br&gt;&lt;/p&gt;&lt;hr size=&quot;1&quot;&gt;&lt;p style=&quot;margin:0px;margin-left:4px;&quot;&gt;+ method(): void displayMovies(); // Use Iterators&lt;/p&gt;&lt;p style=&quot;margin:0px;margin-left:4px;&quot;&gt;+ method(): void addMovie(const Movie&amp;amp;);&amp;nbsp; // look for special cases in project file&lt;br&gt;&lt;/p&gt;&lt;p style=&quot;margin:0px;margin-left:4px;&quot;&gt;+ method(): void startShowingMovie( const Date&amp;amp; ) // release date and look for special cases in project file&lt;br&gt;&lt;/p&gt;&lt;p style=&quot;margin:0px;margin-left:4px;&quot;&gt;+ method(): void editComingMovie( const string&amp;amp; movieNme, const Date&amp;amp; releaseDte, const string&amp;amp; desc)&lt;/p&gt;&amp;nbsp;+ method(): int countComingMoviesBeforeDate( const Date&amp;amp; ) // specified date&lt;p style=&quot;margin:0px;margin-left:4px;&quot;&gt;+ method(): void saveToFile(const string&amp;amp; ) // filename&lt;br&gt;&lt;/p&gt;&lt;p style=&quot;margin:0px;margin-left:4px;&quot;&gt;+ method(): void loadFromFile(const string&amp;amp; ) // filename&lt;br&gt;&lt;/p&gt;&lt;p style=&quot;margin:0px;margin-left:4px;&quot;&gt;&lt;br&gt;&lt;/p&gt;&lt;p style=&quot;margin:0px;margin-left:4px;&quot;&gt;Note: Implement all the methods as per the instruction given by the project file.&lt;/p&gt;" style="verticalAlign=top;align=left;overflow=fill;html=1;whiteSpace=wrap;" parent="1" vertex="1">
          <mxGeometry x="210" y="440" width="605" height="210" as="geometry" />
        </mxCell>
        <mxCell id="Kk1WDMQA1Z-XeTUwKrqD-5" value="&lt;p style=&quot;margin:0px;margin-top:4px;text-align:center;&quot;&gt;&lt;b&gt;Main&lt;/b&gt;&lt;/p&gt;&lt;hr size=&quot;1&quot;&gt;&lt;p style=&quot;margin:0px;margin-left:4px;&quot;&gt;+ Create: MovieManagementSystem movieSystem&lt;/p&gt;&lt;p style=&quot;margin:0px;margin-left:4px;&quot;&gt;+ load: load date from input file&amp;nbsp;&lt;/p&gt;&lt;p style=&quot;margin:0px;margin-left:4px;&quot;&gt;+ DisplayChoice: // let the user select the option&lt;/p&gt;" style="verticalAlign=top;align=left;overflow=fill;html=1;whiteSpace=wrap;" parent="1" vertex="1">
          <mxGeometry x="325" y="720" width="315" height="120" as="geometry" />
        </mxCell>
        <mxCell id="z-Peb-usvqDve8Gpon_m-6" value="&lt;p style=&quot;margin:0px;margin-top:4px;text-align:center;&quot;&gt;&lt;b&gt;Input File ( txt )&lt;/b&gt;&lt;/p&gt;&lt;hr size=&quot;1&quot;&gt;&lt;p style=&quot;margin:0px;margin-left:4px;&quot;&gt;1) Glass, 01/18/2019, Drama/Fantasy, 01/12/2019, released&lt;br&gt;2) Miss Bala, 02/01/2019, Mystery/Thriller, 01/17/2019, received&lt;br&gt;&lt;/p&gt;&lt;p style=&quot;margin:0px;margin-left:4px;&quot;&gt;&lt;br&gt;&lt;/p&gt;" style="verticalAlign=top;align=left;overflow=fill;html=1;whiteSpace=wrap;" parent="1" vertex="1">
          <mxGeometry x="-100" y="720" width="360" height="90" as="geometry" />
        </mxCell>
        <mxCell id="z-Peb-usvqDve8Gpon_m-7" value="&lt;p style=&quot;margin:0px;margin-top:4px;text-align:center;&quot;&gt;&lt;b&gt;Output File ( txt )&lt;/b&gt;&lt;/p&gt;&lt;hr size=&quot;1&quot;&gt;&lt;p style=&quot;margin:0px;margin-left:4px;&quot;&gt;Glass, 01/18/2019, Drama/Fantasy, 01/12/2019, released&lt;br&gt;Miss Bala, 02/01/2019, Mystery/Thriller, 01/17/2019, showing&lt;br&gt;&lt;/p&gt;" style="verticalAlign=top;align=left;overflow=fill;html=1;whiteSpace=wrap;" parent="1" vertex="1">
          <mxGeometry x="730" y="720" width="340" height="90" as="geometry" />
        </mxCell>
        <mxCell id="z-Peb-usvqDve8Gpon_m-8" style="edgeStyle=orthogonalEdgeStyle;rounded=0;orthogonalLoop=1;jettySize=auto;html=1;entryX=0.002;entryY=0.206;entryDx=0;entryDy=0;entryPerimeter=0;" parent="1" source="Kk1WDMQA1Z-XeTUwKrqD-2" target="Kk1WDMQA1Z-XeTUwKrqD-3" edge="1">
          <mxGeometry relative="1" as="geometry" />
        </mxCell>
        <mxCell id="z-Peb-usvqDve8Gpon_m-9" style="edgeStyle=orthogonalEdgeStyle;rounded=0;orthogonalLoop=1;jettySize=auto;html=1;entryX=0.002;entryY=0.821;entryDx=0;entryDy=0;entryPerimeter=0;" parent="1" source="Kk1WDMQA1Z-XeTUwKrqD-1" target="Kk1WDMQA1Z-XeTUwKrqD-3" edge="1">
          <mxGeometry relative="1" as="geometry" />
        </mxCell>
        <mxCell id="z-Peb-usvqDve8Gpon_m-11" style="edgeStyle=orthogonalEdgeStyle;rounded=0;orthogonalLoop=1;jettySize=auto;html=1;entryX=0.95;entryY=-0.016;entryDx=0;entryDy=0;entryPerimeter=0;" parent="1" source="Kk1WDMQA1Z-XeTUwKrqD-3" target="Kk1WDMQA1Z-XeTUwKrqD-4" edge="1">
          <mxGeometry relative="1" as="geometry" />
        </mxCell>
        <mxCell id="z-Peb-usvqDve8Gpon_m-13" style="edgeStyle=orthogonalEdgeStyle;rounded=0;orthogonalLoop=1;jettySize=auto;html=1;entryX=0.176;entryY=-0.011;entryDx=0;entryDy=0;entryPerimeter=0;" parent="1" source="Kk1WDMQA1Z-XeTUwKrqD-1" target="Kk1WDMQA1Z-XeTUwKrqD-4" edge="1">
          <mxGeometry relative="1" as="geometry" />
        </mxCell>
        <mxCell id="z-Peb-usvqDve8Gpon_m-15" style="edgeStyle=orthogonalEdgeStyle;rounded=0;orthogonalLoop=1;jettySize=auto;html=1;entryX=0.003;entryY=0.376;entryDx=0;entryDy=0;entryPerimeter=0;" parent="1" source="z-Peb-usvqDve8Gpon_m-6" target="Kk1WDMQA1Z-XeTUwKrqD-5" edge="1">
          <mxGeometry relative="1" as="geometry" />
        </mxCell>
        <mxCell id="z-Peb-usvqDve8Gpon_m-19" style="edgeStyle=orthogonalEdgeStyle;rounded=0;orthogonalLoop=1;jettySize=auto;html=1;entryX=-0.007;entryY=0.667;entryDx=0;entryDy=0;entryPerimeter=0;" parent="1" source="Kk1WDMQA1Z-XeTUwKrqD-5" target="z-Peb-usvqDve8Gpon_m-7" edge="1">
          <mxGeometry relative="1" as="geometry" />
        </mxCell>
        <mxCell id="z-Peb-usvqDve8Gpon_m-21" style="edgeStyle=orthogonalEdgeStyle;rounded=0;orthogonalLoop=1;jettySize=auto;html=1;entryX=0.595;entryY=0;entryDx=0;entryDy=0;entryPerimeter=0;" parent="1" source="Kk1WDMQA1Z-XeTUwKrqD-4" target="Kk1WDMQA1Z-XeTUwKrqD-5" edge="1">
          <mxGeometry relative="1" as="geometry" />
        </mxCell>
        <mxCell id="z-Peb-usvqDve8Gpon_m-23" value="&lt;p style=&quot;margin:0px;margin-top:4px;text-align:center;&quot;&gt;&lt;b&gt;Side Note&lt;/b&gt;&lt;/p&gt;&lt;hr size=&quot;1&quot;&gt;&lt;p style=&quot;margin:0px;margin-left:4px;&quot;&gt;+ We are using C++ STL for&amp;nbsp;&lt;/p&gt;&lt;p style=&quot;margin:0px;margin-left:4px;&quot;&gt;linked list and iterator&lt;/p&gt;&lt;p style=&quot;margin:0px;margin-left:4px;&quot;&gt;&lt;br&gt;&lt;/p&gt;" style="verticalAlign=top;align=left;overflow=fill;html=1;whiteSpace=wrap;" parent="1" vertex="1">
          <mxGeometry x="-60" y="480" width="180" height="80" as="geometry" />
        </mxCell>
      </root>
    </mxGraphModel>
  </diagram>
</mxfile>
